<?xml version="1.0" standalone="no"?><!DOCTYPE svg PUBLIC "-//W3C//DTD SVG 1.1//EN" "http://www.w3.org/Graphics/SVG/1.1/DTD/svg11.dtd"><svg t="1760944548192" class="icon" viewBox="0 0 1118 1024" version="1.1" xmlns="http://www.w3.org/2000/svg" p-id="4627" xmlns:xlink="http://www.w3.org/1999/xlink" width="218.359375" height="200"><path d="M1107.166128 942.853996L886.853622 409.30096a54.295025 54.295025 0 0 0-69.957052-29.235783 57.427431 57.427431 0 0 0-29.235783 29.235783L563.17174 942.853996a56.278882 56.278882 0 1 0 104.413511 41.765405l44.897809-104.413511h250.592424l44.89781 104.413511a54.295025 54.295025 0 0 0 49.074349 33.412323 55.33916 55.33916 0 0 0 54.295026-54.295026 46.98608 46.98608 0 0 0 0-20.882702zM756.336734 767.439299l80.398403-196.297399 81.442538 196.297399zM592.407523 717.320815a54.295025 54.295025 0 0 0-12.529621-75.177728 777.88065 777.88065 0 0 1-88.751484-85.619078 1268.624148 1268.624148 0 0 0 176.458833-346.652854H745.895383a54.295025 54.295025 0 1 0 0-104.41351H458.75823v-52.206755a54.295025 54.295025 0 0 0-104.41351 0v49.07435H69.295838a54.295025 54.295025 0 1 0 0 104.41351h482.390416a1185.09334 1185.09334 0 0 1-131.561022 268.342721 912.574079 912.574079 0 0 1-104.413511-168.105751 53.25089 53.25089 0 0 0-71.001186-28.191648 52.206755 52.206755 0 0 0-28.191648 68.912917 973.133914 973.133914 0 0 0 128.428617 208.82702l9.397216 5.220675a1010.722778 1010.722778 0 0 1-229.709722 198.38567 54.295025 54.295025 0 0 0-21.926837 73.089457 53.25089 53.25089 0 0 0 73.089457 20.882702 1062.929533 1062.929533 0 0 0 248.504154-208.82702 693.305707 693.305707 0 0 0 96.060429 87.707348 53.25089 53.25089 0 0 0 72.045322-15.662026z" p-id="4628"></path></svg>